# xmcd
#
# Track frame offsets:
#	150
#	51800
#	65110
#	89188
#	110837
#	164675
#	198722
#	219926
#	247143
#	283995
#
# Disc length: 4248 seconds
#
# Revision: 1
# Processed by: cddbd v1.5.2PL0 Copyright (c) Steve Scherf et al.
# Submitted via: audiograbber 1.83.01
#
DISCID=ae10960a
DTITLE=Innes Sibun - The Box Set
DYEAR=2010
DGENRE=Blues
TTITLE0=A Million Miles away
TTITLE1=Station Blues
TTITLE2=I want you back
TTITLE3=Someone like you
TTITLE4=I'm ready
TTITLE5=Desert Rain
TTITLE6=Sooner or later
TTITLE7=Don't you lie to me
TTITLE8=Sweet Disposition
TTITLE9=Fishermans Wharf
EXTD=
EXTT0=
EXTT1=
EXTT2=
EXTT3=
EXTT4=
EXTT5=
EXTT6=
EXTT7=
EXTT8=
EXTT9=
PLAYORDER=
